<?xml version="1.0" encoding="UTF-8" standalone="no"?>
<!DOCTYPE svg PUBLIC "-//W3C//DTD SVG 1.1//EN"
"http://www.w3.org/Graphics/SVG/1.1/DTD/svg11.dtd">
<svg viewBox="0 0 1286 909" version="1.1" xmlns="http://www.w3.org/2000/svg" xmlns:xlink="http://www.w3.org/1999/xlink">
<defs>
<clipPath id="c0_4"><path d="M73.3 881.6V27.8H1211.4V881.6Z"/></clipPath>
<clipPath id="c1_4"><path d="M73.3 881.7V27.8H1211.4V881.7Z"/></clipPath>
<style type="text/css"><![CDATA[
.g0_4{
fill: #FFF;
}
.g1_4{
fill: none;
stroke: #000;
stroke-width: 3.161;
stroke-linejoin: round;
}
]]></style>
</defs>
<path clip-path="url(#c0_4)" d="M73.3 881.6H1211.4V27.8H73.3V881.6Z" class="g0_4"/>
<g clip-path="url(#c1_4)">
<path d="M73.3 881.7H1211.4V27.8H73.3V881.7Z" class="g0_4"/>
<image preserveAspectRatio="none" x="73" y="767" width="1145" height="16" xlink:href="img/1.png"/>
<path d="M73.4 770.7l1138 3.3" class="g1_4"/>
</g>
<path d="M798.4 144.5H1066V92.8H798.4v51.7Z" class="g0_4"/>
<path d="M798.4 92.8H1066v51.7H798.4V92.8Z" class="g1_4"/>
<image clip-path="url(#c1_4)" preserveAspectRatio="none" x="1018" y="97" width="40" height="40" xlink:href="img/2.png"/>
<path d="M149.2 384.1H1066V332.4H149.2v51.7Z" class="g0_4"/>
<path d="M149.2 332.4H1066v51.7H149.2V332.4Z" class="g1_4"/>
<path d="M149.2 463.2H1066V408.5H149.2v54.7Z" class="g0_4"/>
<path d="M149.2 408.5H1066v54.7H149.2V408.5Z" class="g1_4"/>
<path d="M907.6 636H1066V584.3H907.6V636Z" class="g0_4"/>
<path d="M907.6 584.3H1066V636H907.6V584.3Z" class="g1_4"/>
<path d="M149.2 163.5H307.6V96.2H149.2v67.3Z" class="g0_4"/>
<path d="M149.2 96.2H307.6v67.3H149.2V96.2Z" class="g1_4"/>
<path d="M149.2 549.6H1066V494.9H149.2v54.7Z" class="g0_4"/>
<path d="M149.2 494.9H1066v54.7H149.2V494.9Z" class="g1_4"/>
<path d="M149.2 304.2H335.7V252.5H149.2v51.7Z" class="g0_4"/>
<path d="M149.2 252.5H335.7v51.7H149.2V252.5Z" class="g1_4"/>
</svg>