<?xml version="1.0" encoding="UTF-8" standalone="no"?>
<!DOCTYPE svg PUBLIC "-//W3C//DTD SVG 1.1//EN"
"http://www.w3.org/Graphics/SVG/1.1/DTD/svg11.dtd">
<svg viewBox="0 0 1286 909" version="1.1" xmlns="http://www.w3.org/2000/svg" xmlns:xlink="http://www.w3.org/1999/xlink">
<defs>
<clipPath id="c0_8"><path d="M73.3 881.6V27.8H1211.4V881.6Z"/></clipPath>
<clipPath id="c1_8"><path d="M73.3 881.7V27.8H1211.4V881.7Z"/></clipPath>
<style type="text/css"><![CDATA[
.g0_8{
fill: #FFF;
}
.g1_8{
fill: none;
stroke: #000;
stroke-width: 3.161;
stroke-linejoin: round;
}
.g2_8{
fill: #00B050;
}
.g3_8{
fill: #F79646;
}
.g4_8{
fill: #F00;
}
]]></style>
</defs>
<path clip-path="url(#c0_8)" d="M73.3 881.6H1211.4V27.8H73.3V881.6Z" class="g0_8"/>
<g clip-path="url(#c1_8)">
<path d="M73.3 881.7H1211.4V27.8H73.3V881.7Z" class="g0_8"/>
<image preserveAspectRatio="none" x="73" y="767" width="1145" height="16" xlink:href="img/1.png"/>
<path d="M73.4 770.7l1138 3.3" class="g1_8"/>
</g>
<path d="M798.4 144.5H1066V92.8H798.4v51.7Z" class="g0_8"/>
<path d="M798.4 92.8H1066v51.7H798.4V92.8Z" class="g1_8"/>
<image clip-path="url(#c1_8)" preserveAspectRatio="none" x="1018" y="97" width="40" height="40" xlink:href="img/2.png"/>
<path d="M288.3 160.4H446.7V93.1H288.3v67.3Z" class="g0_8"/>
<path d="M288.3 93.1H446.7v67.3H288.3V93.1Z" class="g1_8"/>
<path d="M288.3 264.5H474.8V212.9H288.3v51.6Z" class="g0_8"/>
<path d="M288.3 212.9H474.8v51.6H288.3V212.9Z" class="g1_8"/>
<path d="M798.4 454.4H982.6V402.7H798.4v51.7Z" class="g2_8"/>
<path d="M798.4 402.7H982.6v51.7H798.4V402.7Z" class="g1_8"/>
<path d="M799.4 537.6H983.6V485.9H799.4v51.7Z" class="g3_8"/>
<path d="M799.4 485.9H983.6v51.7H799.4V485.9Z" class="g1_8"/>
<path d="M288.3 703.5h452v-372h-452v372Z" class="g0_8"/>
<path d="M288.3 331.5h452v372h-452v-372Z" class="g1_8"/>
<path d="M798.4 619.9H982.6V568.2H798.4v51.7Z" class="g4_8"/>
<path d="M798.4 568.2H982.6v51.7H798.4V568.2Z" class="g1_8"/>
</svg>